<svg xmlns="http://www.w3.org/2000/svg" version="1.0" width="50.000000pt" height="50.000000pt" viewBox="0 0 50.000000 50.000000" preserveAspectRatio="xMidYMid meet">

<g transform="translate(0.000000,50.000000) scale(0.100000,-0.100000)" fill="#fafafa" stroke="none">
<path d="M41 414 c-35 -25 -28 -67 17 -101 63 -50 62 -51 62 21 0 62 -2 66 -29 80 -25 13 -31 13 -50 0z" fill="#fafafa"/>
<path d="M408 414 c-26 -14 -28 -19 -28 -80 0 -72 -2 -71 63 -21 31 24 38 35 35 60 -4 42 -35 60 -70 41z" fill="#fafafa"/>
<path d="M140 317 l0 -65 55 -41 55 -42 55 41 55 41 0 66 c0 51 -3 63 -12 56 -7 -5 -32 -24 -55 -42 l-43 -33 -42 33 c-24 18 -49 37 -55 42 -10 7 -13 -5 -13 -56z" fill="#fafafa"/>
<path d="M22 199 l3 -114 48 -3 47 -3 0 79 c0 85 -5 94 -73 137 l-28 18 3 -114z" fill="#fafafa"/>
<path d="M428 275 l-48 -36 0 -79 0 -80 45 0 c29 0 48 5 51 13 2 7 3 60 2 116 l-3 103 -47 -37z" fill="#fafafa"/>
</g>
</svg>