<svg xmlns="http://www.w3.org/2000/svg" version="1.0" width="347.000000pt" height="328.000000pt" viewBox="0 0 347.000000 328.000000" preserveAspectRatio="xMidYMid meet">

<g transform="translate(0.000000,328.000000) scale(0.100000,-0.100000)" fill="#ffffff" stroke="none">
<path d="M630 2785 c-52 -14 -180 -48 -283 -77 -165 -45 -188 -54 -185 -70 2 -14 172 -117 592 -359 325 -186 605 -353 623 -371 44 -42 66 -113 51 -165 -14 -51 -29 -80 -181 -347 -117 -205 -131 -235 -131 -277 0 -72 31 -104 191 -198 123 -72 143 -81 188 -81 73 0 107 26 150 115 36 73 32 128 -19 317 -25 90 -106 393 -182 673 -75 281 -147 530 -159 555 -33 64 -61 87 -230 186 -227 134 -259 141 -425 99z" fill="#ffffff"/>
<path d="M2753 2801 c-44 -11 -336 -178 -384 -219 -60 -52 -82 -101 -139 -312 -28 -107 -108 -404 -177 -660 -68 -256 -128 -486 -133 -511 -17 -87 34 -206 103 -244 61 -32 115 -18 257 65 142 83 156 94 177 134 34 66 24 98 -105 322 -169 296 -195 350 -195 404 -1 98 32 129 302 284 119 68 347 199 506 291 160 92 330 190 378 218 134 76 142 71 -223 169 -227 61 -309 74 -367 59z" fill="#ffffff"/>
</g>
</svg>